<svg xmlns="http://www.w3.org/2000/svg" width="1920" height="993" viewBox="0 0 1920 993">
  <defs>
    <style>
      .cls-1 {
        fill: #3e1eff;
        fill-rule: evenodd;
      }
    </style>
  </defs>
  <path id="Bg_2" data-name="Bg 2" class="cls-1" d="M-15,993H1938V0H1374.34L1267.85,106.64H856.906L841.62,91.332H747.806L732.558,106.6l-6.735.039,15.286-15.308h-8.343L717.518,106.6l-6.735.039,15.286-15.308h-8.343L702.479,106.6l-6.736.039L711.03,91.332h-8.344L687.439,106.6l-6.736.039L695.99,91.332h-8.343L672.4,106.6l-6.735.039L680.95,91.332h-8.343L657.359,106.6l-6.735.039L665.91,91.332h-8.343L642.319,106.6l-6.735.039,15.287-15.308h-8.344L627.28,106.6l-6.736.039,15.287-15.308h-8.343L612.24,106.6l-6.735.039,15.286-15.308h-8.343L597.2,106.6l-6.735.039,15.286-15.308H571L555.714,106.64H-15V993Z"/>
</svg>
