<svg xmlns="http://www.w3.org/2000/svg" width="1920" height="1047" viewBox="0 0 1920 1047">
  <defs>
    <style>
      .cls-1 {
        fill: #a30000;
        fill-rule: evenodd;
      }
    </style>
  </defs>
  <path id="BG_4" data-name="BG 4" class="cls-1" d="M1938,1047H-38V64.45H456.333l43.167,43.2h97.75l25.875-25.9h61.208l25.875,25.9h401l17.57-17.588h6.7l-17.58,17.588h8.35l17.57-17.588h6.7l-17.58,17.588h8.35l17.57-17.588h6.7l-17.58,17.588h8.35l17.57-17.588h6.7l-17.58,17.588h8.35l17.57-17.588h6.7l-17.58,17.588h8.35l17.57-17.588h6.7l-17.58,17.588h8.34l17.58-17.588h6.7l-17.58,17.588h8.34l17.58-17.588h6.69l-17.57,17.588h8.34l17.58-17.588h6.69l-17.57,17.588h9.63l26.82-26.843h112.51V58.273L1445.4,0H1938V1047Z"/>
</svg>
