<?xml version="1.0" encoding="utf-8"?>
<!-- Generator: Adobe Illustrator 24.0.0, SVG Export Plug-In . SVG Version: 6.00 Build 0)  -->
<svg version="1.1" id="Layer_1" xmlns="http://www.w3.org/2000/svg" xmlns:xlink="http://www.w3.org/1999/xlink" x="0px" y="0px"
	 width="45px" height="45.2px" viewBox="0 0 45 45.2" style="enable-background:new 0 0 45 45.2;" xml:space="preserve">
<style type="text/css">
	.st0{stroke:#000000;}
	.st1{clip-path:url(#SVGID_2_);fill:#02FFF0;}
</style>
<path id="Shape_1_copy_3" class="st0" d="M44.5,0.5H9.9L0.5,9.8v34.9h34.6l9.5-9.3L44.5,0.5L44.5,0.5z"/>
<g>
	<g>
		<defs>
			<rect id="SVGID_1_" x="13.2" y="14" width="18.7" height="14.5"/>
		</defs>
		<clipPath id="SVGID_2_">
			<use xlink:href="#SVGID_1_"  style="overflow:visible;"/>
		</clipPath>
		<path class="st1" d="M29,15.2c-1.2-0.6-2.5-1-3.9-1.2c-0.2,0.3-0.4,0.7-0.5,1c-1.4-0.2-2.9-0.2-4.3,0c-0.1-0.3-0.3-0.7-0.5-1
			c-1.4,0.2-2.7,0.6-3.9,1.2c-2.4,3.7-3.1,7.3-2.8,10.8c1.6,1.2,3.2,1.9,4.7,2.4c0.4-0.5,0.7-1.1,1-1.7c-0.6-0.2-1.1-0.5-1.6-0.8
			c0.1-0.1,0.3-0.2,0.4-0.3c3.1,1.4,6.4,1.4,9.5,0c0.1,0.1,0.3,0.2,0.4,0.3c-0.5,0.3-1,0.6-1.6,0.8c0.3,0.6,0.6,1.1,1,1.7
			c1.5-0.5,3.1-1.2,4.7-2.4C32.2,21.9,31.1,18.3,29,15.2 M19.4,23.8c-0.9,0-1.7-0.9-1.7-1.9s0.7-1.9,1.7-1.9s1.7,0.9,1.7,1.9
			C21.1,23,20.3,23.8,19.4,23.8 M25.6,23.8c-0.9,0-1.7-0.9-1.7-1.9s0.7-1.9,1.7-1.9s1.7,0.9,1.7,1.9C27.3,23,26.6,23.8,25.6,23.8"/>
	</g>
</g>
</svg>
