<?xml version="1.0" encoding="utf-8"?>
<!-- Generator: Adobe Illustrator 24.0.0, SVG Export Plug-In . SVG Version: 6.00 Build 0)  -->
<svg version="1.1" id="Layer_1" xmlns="http://www.w3.org/2000/svg" xmlns:xlink="http://www.w3.org/1999/xlink" x="0px" y="0px"
	 width="45px" height="45.3px" viewBox="0 0 45 45.3" style="enable-background:new 0 0 45 45.3;" xml:space="preserve">
<style type="text/css">
	.st0{stroke:#000000;}
	.st1{clip-path:url(#SVGID_2_);fill:#02FFF0;}
	.st2{clip-path:url(#SVGID_4_);fill:#02FFF0;}
	.st3{clip-path:url(#SVGID_6_);fill:#02FFF0;}
</style>
<path id="Shape_1_copy_3" class="st0" d="M44.5,0.5H9.9L0.5,9.8v34.9h34.6l9.5-9.3L44.5,0.5L44.5,0.5z"/>
<g>
	<g>
		<defs>
			<rect id="SVGID_1_" x="13.4" y="13.5" width="18.3" height="18.3"/>
		</defs>
		<clipPath id="SVGID_2_">
			<use xlink:href="#SVGID_1_"  style="overflow:visible;"/>
		</clipPath>
		<path class="st1" d="M22.5,15.1c2.4,0,2.7,0,3.7,0.1c0.9,0,1.4,0.2,1.7,0.3c0.4,0.2,0.7,0.4,1,0.7c0.3,0.3,0.5,0.6,0.7,1
			c0.1,0.3,0.3,0.8,0.3,1.7c0,1,0.1,1.3,0.1,3.7s0,2.7-0.1,3.7c0,0.9-0.2,1.4-0.3,1.7c-0.2,0.4-0.4,0.7-0.7,1
			c-0.3,0.3-0.6,0.5-1,0.7c-0.3,0.1-0.8,0.3-1.7,0.3c-1,0-1.3,0.1-3.7,0.1s-2.7,0-3.7-0.1c-0.9,0-1.4-0.2-1.7-0.3
			c-0.4-0.2-0.7-0.4-1-0.7c-0.3-0.3-0.5-0.6-0.7-1c-0.1-0.3-0.3-0.8-0.3-1.7c0-1-0.1-1.3-0.1-3.7s0-2.7,0.1-3.7
			c0-0.9,0.2-1.4,0.3-1.7c0.2-0.4,0.4-0.7,0.7-1c0.3-0.3,0.6-0.5,1-0.7c0.3-0.1,0.8-0.3,1.7-0.3C19.8,15.1,20.1,15.1,22.5,15.1
			 M22.5,13.5c-2.5,0-2.8,0-3.8,0.1c-1,0-1.6,0.2-2.2,0.4s-1.1,0.5-1.6,1.1c-0.5,0.5-0.8,1-1.1,1.6c-0.2,0.6-0.4,1.2-0.4,2.2
			s-0.1,1.3-0.1,3.8s0,2.8,0.1,3.8c0,1,0.2,1.6,0.4,2.2s0.5,1.1,1.1,1.6c0.5,0.5,1,0.8,1.6,1.1c0.6,0.2,1.2,0.4,2.2,0.4
			s1.3,0.1,3.8,0.1s2.8,0,3.8-0.1c1,0,1.6-0.2,2.2-0.4c0.6-0.2,1.1-0.5,1.6-1.1c0.5-0.5,0.8-1,1.1-1.6c0.2-0.6,0.4-1.2,0.4-2.2
			s0.1-1.3,0.1-3.8s0-2.8-0.1-3.8c0-1-0.2-1.6-0.4-2.2c-0.2-0.6-0.5-1.1-1.1-1.6c-0.5-0.5-1-0.8-1.6-1.1c-0.6-0.2-1.2-0.4-2.2-0.4
			C25.3,13.5,25,13.5,22.5,13.5"/>
	</g>
	<g>
		<defs>
			<rect id="SVGID_3_" x="13.4" y="13.5" width="18.3" height="18.3"/>
		</defs>
		<clipPath id="SVGID_4_">
			<use xlink:href="#SVGID_3_"  style="overflow:visible;"/>
		</clipPath>
		<path class="st2" d="M22.5,17.9c-2.6,0-4.7,2.1-4.7,4.7s2.1,4.7,4.7,4.7s4.7-2.1,4.7-4.7S25.1,17.9,22.5,17.9 M22.5,25.7
			c-1.7,0-3-1.4-3-3c0-1.7,1.4-3,3-3s3,1.4,3,3C25.5,24.3,24.2,25.7,22.5,25.7"/>
	</g>
	<g>
		<defs>
			<rect id="SVGID_5_" x="13.4" y="13.5" width="18.3" height="18.3"/>
		</defs>
		<clipPath id="SVGID_6_">
			<use xlink:href="#SVGID_5_"  style="overflow:visible;"/>
		</clipPath>
		<path class="st3" d="M28.5,17.8c0,0.6-0.5,1.1-1.1,1.1s-1.1-0.5-1.1-1.1s0.5-1.1,1.1-1.1C28,16.7,28.5,17.1,28.5,17.8"/>
	</g>
</g>
</svg>
