<?xml version="1.0" encoding="utf-8"?>
<!-- Generator: Adobe Illustrator 24.0.0, SVG Export Plug-In . SVG Version: 6.00 Build 0)  -->
<svg version="1.1" id="Layer_1" xmlns="http://www.w3.org/2000/svg" xmlns:xlink="http://www.w3.org/1999/xlink" x="0px" y="0px"
	 width="45px" height="45.2px" viewBox="0 0 45 45.2" style="enable-background:new 0 0 45 45.2;" xml:space="preserve">
<style type="text/css">
	.st0{stroke:#000000;}
	.st1{clip-path:url(#SVGID_2_);fill:#02FFF0;}
</style>
<path id="Shape_1_copy_3" class="st0" d="M44.5,0.5H9.9L0.5,9.8v34.9h34.6l9.5-9.3L44.5,0.5L44.5,0.5z"/>
<g>
	<g>
		<defs>
			<rect id="SVGID_1_" x="13.3" y="15.2" width="18.4" height="14.9"/>
		</defs>
		<clipPath id="SVGID_2_">
			<use xlink:href="#SVGID_1_"  style="overflow:visible;"/>
		</clipPath>
		<path class="st1" d="M29.8,18.9c0,0.2,0,0.3,0,0.5c0,5-3.8,10.7-10.7,10.7l0,0c-2,0-4.1-0.6-5.8-1.7c0.3,0,0.6,0.1,0.9,0.1
			c1.7,0,3.3-0.6,4.7-1.6c-1.6,0-3-1.1-3.5-2.6c0.6,0.1,1.1,0.1,1.7-0.1c-1.8-0.4-3-1.9-3-3.7l0,0c0.5,0.3,1.1,0.5,1.7,0.5
			c-1.7-1.1-2.2-3.3-1.2-5c1.9,2.4,4.7,3.8,7.8,3.9c-0.3-1.3,0.1-2.7,1.1-3.6c1.5-1.4,3.9-1.4,5.3,0.2c0.8-0.2,1.7-0.5,2.4-0.9
			c-0.3,0.9-0.9,1.6-1.7,2.1c0.7-0.1,1.5-0.3,2.2-0.6C31.2,17.7,30.5,18.3,29.8,18.9"/>
	</g>
</g>
</svg>
